<svg xmlns="http://www.w3.org/2000/svg" version="1.1" xmlns:xlink="http://www.w3.org/1999/xlink" xmlns:svgjs="http://svgjs.dev/svgjs" width="2000" height="1500" viewBox="0 0 2000 1500"><rect width="2000" height="1500" fill="#ff3d34"></rect><g transform="matrix(0.75,0,0,0.75,249.090909090909,282.7536437246963)"><svg viewBox="0 0 396 247" data-background-color="#ff3d34" preserveAspectRatio="xMidYMid meet" height="1247" width="2000" xmlns="http://www.w3.org/2000/svg" xmlns:xlink="http://www.w3.org/1999/xlink"><g id="tight-bounds" transform="matrix(1,0,0,1,0.2400000000000091,-0.09999999999999432)"><svg viewBox="0 0 395.52 247.2" height="247.2" width="395.52"><g><svg></svg></g><g><svg viewBox="0 0 395.52 247.2" height="247.2" width="395.52"><g transform="matrix(1,0,0,1,103.76086444007859,37.08)"><svg viewBox="0 0 187.9982711198428 173.04" height="173.04" width="187.9982711198428"><g><svg viewBox="0 0 187.9982711198428 173.04" height="173.04" width="187.9982711198428"><g><svg viewBox="0 0 187.9982711198428 173.04" height="173.04" width="187.9982711198428"><g><svg viewBox="0 0 187.9982711198428 173.04" height="173.04" width="187.9982711198428"><g><svg viewBox="0 0 187.9982711198428 173.04" height="173.04" width="187.9982711198428"><g><svg viewBox="0 0 187.9982711198428 173.04" height="173.04" width="187.9982711198428"><g transform="matrix(1,0,0,1,0,0)"><svg width="187.9982711198428" viewBox="0.4000000059604645 -24.75 27.649999618530273 25.450000762939453" height="173.04" data-palette-color="#ffffff"><path d="M17.2-15.35L17.2-15.35Q17.2-17.5 15.13-17.5 13.05-17.5 11.7-15.95L11.7-15.95 8.9 0 0.4 0 4.65-24.05 12.55-24.05 12-21.1Q14.95-24.75 19.45-24.75 23.95-24.75 25.3-22.55L25.3-22.55Q26.15-21.15 26.15-19.35 26.15-17.55 25.9-16L25.9-16 24.55-8.3Q24.5-8 24.5-7.75L24.5-7.75Q24.5-6.4 26-6.4L26-6.4Q27.15-6.4 28.05-6.9L28.05-6.9 27.8-1.25Q25.45 0.7 22.45 0.7L22.45 0.7Q15.65 0.7 15.65-5L15.65-5Q15.65-6 15.85-7.15L15.85-7.15 17.05-13.8Q17.2-14.7 17.2-15.35Z" opacity="1" transform="matrix(1,0,0,1,0,0)" fill="#ffffff" class="undefined-text-0" data-fill-palette-color="primary" id="text-0"></path></svg></g></svg></g></svg></g></svg></g><g></g></svg></g></svg></g></svg></g><g></g></svg></g><defs></defs></svg><rect width="395.52" height="247.2" fill="none" stroke="none" visibility="hidden"></rect></g></svg></g></svg>