<svg xmlns="http://www.w3.org/2000/svg" version="1.1" xmlns:xlink="http://www.w3.org/1999/xlink" xmlns:svgjs="http://svgjs.dev/svgjs" width="2000" height="1500" viewBox="0 0 2000 1500"><rect width="2000" height="1500" fill="#ffffff"></rect><g transform="matrix(0.75,0,0,0.75,249.09094642012906,572.3537438401191)"><svg viewBox="0 0 396 94" data-background-color="#ffffff" preserveAspectRatio="xMidYMid meet" height="474" width="2000" xmlns="http://www.w3.org/2000/svg" xmlns:xlink="http://www.w3.org/1999/xlink"><g id="tight-bounds" transform="matrix(1,0,0,1,0.2399901450859261,-0.02743156391335333)"><svg viewBox="0 0 395.52 94.0548631278267" height="94.0548631278267" width="395.52"><g><svg viewBox="0 0 395.52 94.0548631278267" height="94.0548631278267" width="395.52"><g><svg viewBox="0 0 395.52 94.0548631278267" height="94.0548631278267" width="395.52"><g><svg viewBox="0 0 395.52 94.0548631278267" height="94.0548631278267" width="395.52"><g><svg viewBox="0 0 395.52 94.0548631278267" height="94.0548631278267" width="395.52"><g transform="matrix(1,0,0,1,0,0)"><svg width="395.52" viewBox="-1.9000000953674316 -37.45000076293945 210.12998962402344 49.95000076293945" height="94.0548631278267" data-palette-color="#ff5858"><g class="undefined-text-0" data-fill-palette-color="primary" id="text-0"><path d="M12.15-5.35L12.15-5.35Q12.15-6.25 12.38-7.6 12.6-8.95 13.3-11.9L13.3-11.9Q14-14.75 14.2-16 14.4-17.25 14.4-18.1L14.4-18.1Q14.4-19.35 13.95-20 13.5-20.65 12.6-20.65L12.6-20.65Q11.4-20.65 10.38-19.43 9.35-18.2 8.7-16.05L8.7-16.05 5.3 0-1.9 0 3.4-25 10.6-25 10.05-22.4Q11.3-23.8 12.75-24.5 14.2-25.2 15.9-25.2L15.9-25.2Q18.55-25.2 20-23.75 21.45-22.3 21.45-19.55L21.45-19.55Q21.45-18.4 21.18-16.82 20.9-15.25 20.1-12L20.1-12Q19.45-9.45 19.25-8.4 19.05-7.35 19.05-6.65L19.05-6.65Q19.05-5.6 19.55-5.08 20.05-4.55 21.05-4.55L21.05-4.55Q22.3-4.55 23.2-5.4 24.1-6.25 25.25-8.95L25.25-8.95 27.35-8.95Q25.75-4.3 23.48-2 21.2 0.3 18.05 0.3L18.05 0.3Q15.25 0.3 13.7-1.23 12.15-2.75 12.15-5.35ZM43.6-20.65L43.6-20.65Q43.6-16.5 40.2-13.43 36.8-10.35 32.1-10.1L32.1-10.1Q32.05-9.25 32.02-8.83 32-8.4 32-8.1L32-8.1Q32-5.8 32.77-4.85 33.55-3.9 35.6-3.9L35.6-3.9Q37.95-3.9 39.92-4.98 41.9-6.05 44.45-8.95L44.45-8.95 46.15-8.95Q43.25-4.25 39.85-1.98 36.45 0.3 32.4 0.3L32.4 0.3Q28.55 0.3 26.57-1.7 24.6-3.7 24.6-7.65L24.6-7.65Q24.6-10.5 25.5-13.7 26.4-16.9 27.9-19.4L27.9-19.4Q29.75-22.4 32.32-23.93 34.9-25.45 38.1-25.45L38.1-25.45Q40.85-25.45 42.22-24.28 43.6-23.1 43.6-20.65ZM38.5-22.8L38.5-22.8Q36.8-22.8 35.07-19.78 33.35-16.75 32.5-12.5L32.5-12.5Q35.4-12.7 37.57-15.18 39.75-17.65 39.75-20.75L39.75-20.75Q39.75-21.8 39.45-22.3 39.15-22.8 38.5-22.8ZM52.8-4.55L52.8-4.55Q54.1-4.55 55.12-5.68 56.15-6.8 56.8-8.95L56.8-8.95 60.2-25 67.4-25 63.8-8Q63.7-7.55 63.65-7.18 63.6-6.8 63.6-6.4L63.6-6.4Q63.6-5.4 64.07-4.98 64.55-4.55 65.65-4.55L65.65-4.55Q66.95-4.55 68-5.7 69.05-6.85 69.7-8.95L69.7-8.95 71.8-8.95Q70.2-4.35 67.65-2.02 65.1 0.3 61.75 0.3L61.75 0.3Q59.6 0.3 58.3-0.93 57-2.15 56.8-4.45L56.8-4.45Q55.35-2.05 53.52-0.88 51.7 0.3 49.4 0.3L49.4 0.3Q46.9 0.3 45.47-1.28 44.05-2.85 44.05-5.7L44.05-5.7Q44.05-6.35 44.15-7.18 44.25-8 44.45-8.95L44.45-8.95 47.85-25 55.05-25 51.45-8Q51.35-7.6 51.32-7.28 51.3-6.95 51.3-6.6L51.3-6.6Q51.3-5.6 51.67-5.08 52.05-4.55 52.8-4.55ZM78.99-19L74.99 0 67.79 0 73.09-25 80.29-25 79.64-21.9Q81.84-23.75 83.12-24.38 84.39-25 85.69-25L85.69-25Q87.24-25 88.19-23.93 89.14-22.85 89.14-21.25L89.14-21.25Q89.14-19.7 88.14-18.65 87.14-17.6 85.54-17.6L85.54-17.6Q84.69-17.6 84.22-18 83.74-18.4 83.54-19.65L83.54-19.65Q83.39-20.45 83.19-20.68 82.99-20.9 82.64-20.9L82.64-20.9Q81.79-20.9 81.04-20.55 80.29-20.2 78.99-19L78.99-19ZM104.74-22.7L104.74-22.7 104.74-22.35 105.29-25 112.49-25 108.89-8Q108.79-7.55 108.74-7.18 108.69-6.8 108.69-6.4L108.69-6.4Q108.69-5.3 109.19-4.78 109.69-4.25 110.74-4.25L110.74-4.25Q112.04-4.25 113.09-5.48 114.14-6.7 114.79-8.95L114.79-8.95 116.89-8.95Q115.29-4.35 112.74-2.02 110.19 0.3 106.84 0.3L106.84 0.3Q104.69 0.3 103.42-0.9 102.14-2.1 101.94-4.3L101.94-4.3Q100.39-2 98.52-0.85 96.64 0.3 94.49 0.3L94.49 0.3Q91.39 0.3 89.62-1.8 87.84-3.9 87.84-7.75L87.84-7.75Q87.84-10.55 88.69-13.6 89.54-16.65 91.04-19.15L91.04-19.15Q92.89-22.1 95.34-23.68 97.79-25.25 100.69-25.25L100.69-25.25Q102.64-25.25 103.69-24.58 104.74-23.9 104.74-22.7ZM101.89-8.95L104.29-20.25Q104.29-21 103.74-21.58 103.19-22.15 102.24-22.15L102.24-22.15Q99.49-22.15 97.37-17.55 95.24-12.95 95.24-8.45L95.24-8.45Q95.24-6.5 95.79-5.53 96.34-4.55 97.74-4.55L97.74-4.55Q99.04-4.55 100.27-5.8 101.49-7.05 101.89-8.95L101.89-8.95ZM114.39-5.7L114.39-5.7Q114.39-6.35 114.49-7.18 114.59-8 114.79-8.95L114.79-8.95 120.14-34 127.54-35 121.79-8Q121.69-7.55 121.64-7.18 121.59-6.8 121.59-6.4L121.59-6.4Q121.59-5.4 122.06-4.98 122.54-4.55 123.64-4.55L123.64-4.55Q125.04-4.55 126.29-5.78 127.54-7 128.14-8.95L128.14-8.95 130.24-8.95Q128.64-4.4 125.94-2.05 123.24 0.3 119.74 0.3L119.74 0.3Q117.24 0.3 115.81-1.28 114.39-2.85 114.39-5.7ZM141.49-37.45L141.49-37.45Q143.94-37.45 145.66-35.9 147.39-34.35 147.39-32.05L147.39-32.05Q147.39-31.45 147.36-30.95 147.34-30.45 147.24-30L147.24-30 144.89-30Q144.99-30.8 144.99-30.98 144.99-31.15 144.99-31.35L144.99-31.35Q144.99-32.15 144.46-32.6 143.94-33.05 143.09-33.05L143.09-33.05Q141.84-33.05 140.91-32 139.99-30.95 139.59-28.95L139.59-28.95 138.74-25 142.39-25 142.04-23 138.34-23 132.59 4Q131.69 8.25 129.44 10.38 127.19 12.5 123.64 12.5L123.64 12.5Q121.19 12.5 119.46 10.95 117.74 9.4 117.74 7.1L117.74 7.1Q117.74 4.5 119.46 2.85 121.19 1.2 126.34-0.4L126.34-0.4 132.39-28.95Q133.29-33.15 135.59-35.3 137.89-37.45 141.49-37.45ZM125.34 4.15L125.99 1.25Q123.09 2.2 121.79 3.45 120.49 4.7 120.49 6.4L120.49 6.4Q120.49 7 121.11 7.53 121.74 8.05 122.49 8.05L122.49 8.05Q123.44 8.05 124.19 7.05 124.94 6.05 125.34 4.15L125.34 4.15ZM159.83-20.65L159.83-20.65Q159.83-16.5 156.43-13.43 153.03-10.35 148.33-10.1L148.33-10.1Q148.28-9.25 148.26-8.83 148.23-8.4 148.23-8.1L148.23-8.1Q148.23-5.8 149.01-4.85 149.78-3.9 151.83-3.9L151.83-3.9Q154.18-3.9 156.16-4.98 158.13-6.05 160.68-8.95L160.68-8.95 162.38-8.95Q159.48-4.25 156.08-1.98 152.68 0.3 148.63 0.3L148.63 0.3Q144.78 0.3 142.81-1.7 140.83-3.7 140.83-7.65L140.83-7.65Q140.83-10.5 141.73-13.7 142.63-16.9 144.13-19.4L144.13-19.4Q145.98-22.4 148.56-23.93 151.13-25.45 154.33-25.45L154.33-25.45Q157.08-25.45 158.46-24.28 159.83-23.1 159.83-20.65ZM154.73-22.8L154.73-22.8Q153.03-22.8 151.31-19.78 149.58-16.75 148.73-12.5L148.73-12.5Q151.63-12.7 153.81-15.18 155.98-17.65 155.98-20.75L155.98-20.75Q155.98-21.8 155.68-22.3 155.38-22.8 154.73-22.8ZM179.03-20.65L179.03-20.65Q179.03-16.5 175.63-13.43 172.23-10.35 167.53-10.1L167.53-10.1Q167.48-9.25 167.46-8.83 167.43-8.4 167.43-8.1L167.43-8.1Q167.43-5.8 168.21-4.85 168.98-3.9 171.03-3.9L171.03-3.9Q173.38-3.9 175.36-4.98 177.33-6.05 179.88-8.95L179.88-8.95 181.58-8.95Q178.68-4.25 175.28-1.98 171.88 0.3 167.83 0.3L167.83 0.3Q163.98 0.3 162-1.7 160.03-3.7 160.03-7.65L160.03-7.65Q160.03-10.5 160.93-13.7 161.83-16.9 163.33-19.4L163.33-19.4Q165.18-22.4 167.75-23.93 170.33-25.45 173.53-25.45L173.53-25.45Q176.28-25.45 177.66-24.28 179.03-23.1 179.03-20.65ZM173.93-22.8L173.93-22.8Q172.23-22.8 170.5-19.78 168.78-16.75 167.93-12.5L167.93-12.5Q170.83-12.7 173-15.18 175.18-17.65 175.18-20.75L175.18-20.75Q175.18-21.8 174.88-22.3 174.58-22.8 173.93-22.8ZM186.63-8.45L186.63-8.45Q186.63-6.5 187.18-5.53 187.73-4.55 189.13-4.55L189.13-4.55Q190.38-4.55 191.58-5.73 192.78-6.9 193.23-8.7L193.23-8.7 193.23-8.95 195.68-20.4Q195.53-21.2 195-21.68 194.48-22.15 193.63-22.15L193.63-22.15Q190.88-22.15 188.75-17.55 186.63-12.95 186.63-8.45ZM196.13-22.7L196.13-22.7 196.13-22.5 198.58-34 205.98-35 200.23-8Q200.13-7.55 200.08-7.18 200.03-6.8 200.03-6.4L200.03-6.4Q200.03-5.4 200.5-4.98 200.98-4.55 202.08-4.55L202.08-4.55Q203.38-4.55 204.43-5.7 205.48-6.85 206.13-8.95L206.13-8.95 208.23-8.95Q206.68-4.5 204.2-2.25 201.73 0 198.18 0L198.18 0Q196.13 0 194.85-1.13 193.58-2.25 193.28-4.3L193.28-4.3Q191.78-2 189.93-0.85 188.08 0.3 185.88 0.3L185.88 0.3Q182.78 0.3 181-1.8 179.23-3.9 179.23-7.75L179.23-7.75Q179.23-10.55 180.08-13.6 180.93-16.65 182.43-19.15L182.43-19.15Q184.28-22.1 186.73-23.68 189.18-25.25 192.08-25.25L192.08-25.25Q194.03-25.25 195.08-24.58 196.13-23.9 196.13-22.7Z" fill="#ff5858" data-fill-palette-color="primary"></path></g></svg></g></svg></g></svg></g></svg></g><g></g></svg></g><defs></defs></svg><rect width="395.52" height="94.0548631278267" fill="none" stroke="none" visibility="hidden"></rect></g></svg></g></svg>