<svg xmlns="http://www.w3.org/2000/svg" version="1.1" xmlns:xlink="http://www.w3.org/1999/xlink" xmlns:svgjs="http://svgjs.dev/svgjs" width="2000" height="1500" viewBox="0 0 2000 1500"><rect width="2000" height="1500" fill="#ffffff"></rect><g transform="matrix(0.75,0,0,0.75,249.090909090909,282.7536437246963)"><svg viewBox="0 0 396 247" data-background-color="#ffffff" preserveAspectRatio="xMidYMid meet" height="1247" width="2000" xmlns="http://www.w3.org/2000/svg" xmlns:xlink="http://www.w3.org/1999/xlink"><g id="tight-bounds" transform="matrix(1,0,0,1,0.2400000000000091,-0.09999999999999432)"><svg viewBox="0 0 395.52 247.2" height="247.2" width="395.52"><g><svg></svg></g><g><svg viewBox="0 0 395.52 247.2" height="247.2" width="395.52"><g transform="matrix(1,0,0,1,62.956258064516106,37.08)"><svg viewBox="0 0 269.60748387096777 173.04" height="173.04" width="269.60748387096777"><g><svg viewBox="0 0 269.60748387096777 173.04" height="173.04" width="269.60748387096777"><g><svg viewBox="0 0 269.60748387096777 173.04" height="173.04" width="269.60748387096777"><g><svg viewBox="0 0 269.60748387096777 173.04" height="173.04" width="269.60748387096777"><g><svg viewBox="0 0 269.60748387096777 173.04" height="173.04" width="269.60748387096777"><g><svg viewBox="0 0 269.60748387096777 173.04" height="173.04" width="269.60748387096777"><g transform="matrix(1,0,0,1,0,0)"><svg width="269.60748387096777" viewBox="-0.3500000238418579 -14.199999809265137 24.149999618530273 15.5" height="173.04" data-palette-color="#ecab55"><path d="M15.9-14.2L15.9-14.2Q17.05-14.2 17.05-12.98 17.05-11.75 15.9-9.6 14.75-7.45 14.2-6.1L14.2-6.1Q13.25-3.8 13.25-2.43 13.25-1.05 13.65-0.6L13.65-0.6Q14.4 0.2 15.7-0.53 17-1.25 19.33-3.33 21.65-5.4 23.05-7.4L23.05-7.4Q23.25-7.65 23.53-7.53 23.8-7.4 23.8-7.28 23.8-7.15 23.7-7L23.7-7Q22.95-5.65 21-3.55 19.05-1.45 17.25-0.18 15.45 1.1 13.7 1.1L13.7 1.1Q12 1.05 11.3 0.33 10.6-0.4 10.6-1.5 10.6-2.6 10.8-3.63 11-4.65 11.55-6L11.55-6Q12.45-8.15 13.13-9.35 13.8-10.55 13.8-10.93 13.8-11.3 13.4-11.3L13.4-11.3Q12.6-11.3 10.35-9.35L10.35-9.35Q8.8-7.9 5.78-3.88 2.75 0.15 2.35 0.4L2.35 0.4Q0.55 1.3 0.1 1.3-0.35 1.3-0.35 1.15-0.35 1-0.25 0.73-0.15 0.45 0.73-2 1.6-4.45 2.63-7.38 3.65-10.3 3.88-10.9 4.1-11.5 4.17-11.93 4.25-12.35 4.35-12.65 4.45-12.95 4.73-13.33 5-13.7 5.45-13.73 5.9-13.75 6.6-13.63 7.3-13.5 7.3-13L7.3-13Q7.3-12.65 6.75-11.48 6.2-10.3 3.6-3.4L3.6-3.4Q5.4-5.6 8.15-8.47 10.9-11.35 12.8-12.85L12.8-12.85Q14.7-14.2 15.9-14.2Z" opacity="1" transform="matrix(1,0,0,1,0,0)" fill="#ecab55" class="undefined-text-0" data-fill-palette-color="primary" id="text-0"></path></svg></g></svg></g></svg></g></svg></g><g></g></svg></g></svg></g></svg></g><g></g></svg></g><defs></defs></svg><rect width="395.52" height="247.2" fill="none" stroke="none" visibility="hidden"></rect></g></svg></g></svg>