<svg xmlns="http://www.w3.org/2000/svg" xmlns:xlink="http://www.w3.org/1999/xlink" width="500" zoomAndPan="magnify" viewBox="0 0 375 374.999991" height="500" preserveAspectRatio="xMidYMid meet" version="1.0"><defs><g/></defs><rect x="-37.5" width="450" fill="#ffffff" y="-37.499999" height="449.999989" fill-opacity="1"/><rect x="-37.5" width="450" fill="#ff3d34" y="-37.499999" height="449.999989" fill-opacity="1"/><g fill="#ffffff" fill-opacity="1"><g transform="translate(87.588565, 287.249981)"><g><path d="M 33.25 0 L 54.5 0 C 64 0 71.25 -7.25 71.25 -16.75 L 71.25 -61.75 C 71.25 -70.75 78.75 -78.25 87.75 -78.25 L 137.5 -78.25 C 171.5 -78.25 196.246094 -103 196.246094 -137 L 196.246094 -141.25 C 196.246094 -175.25 171.5 -199.996094 137.5 -199.996094 L 33.25 -199.996094 C 23.75 -199.996094 16.5 -192.75 16.5 -183.25 L 16.5 -16.75 C 16.5 -7.25 23.75 0 33.25 0 Z M 87.5 -122 C 78.5 -122 71.25 -129.25 71.25 -138.25 C 71.25 -147.5 78.5 -154.75 87.5 -154.75 L 125 -154.75 C 134.25 -154.75 141.5 -147.5 141.5 -138.25 C 141.5 -129.25 134.25 -122 125 -122 Z M 87.5 -122 "/></g></g></g></svg>